<svg width="21" height="24" viewBox="0 0 21 24" fill="none" xmlns="http://www.w3.org/2000/svg">
<path d="M20.25 6.00001V6.75001C20.25 6.84947 20.2105 6.94485 20.1402 7.01518C20.0698 7.0855 19.9745 7.12501 19.875 7.12501H18.75V7.68751C18.75 7.99815 18.4981 8.25001 18.1875 8.25001H-0.1875C-0.498141 8.25001 -0.75 7.99815 -0.75 7.68751V7.12501H-1.875C-1.97446 7.12501 -2.06984 7.0855 -2.14017 7.01518C-2.21049 6.94485 -2.25 6.84947 -2.25 6.75001V6.00001C-2.25 5.92582 -2.22799 5.8533 -2.18677 5.79162C-2.14554 5.72994 -2.08694 5.68188 -2.01839 5.65351L8.85661 1.52851C8.94842 1.4905 9.05158 1.4905 9.14339 1.52851L20.0184 5.65351C20.0869 5.68188 20.1455 5.72994 20.1868 5.79162C20.228 5.8533 20.25 5.92582 20.25 6.00001ZM19.125 20.25H-1.125C-1.74633 20.25 -2.25 20.7537 -2.25 21.375V22.125C-2.25 22.2245 -2.21049 22.3199 -2.14017 22.3902C-2.06984 22.4605 -1.97446 22.5 -1.875 22.5H19.875C19.9745 22.5 20.0698 22.4605 20.1402 22.3902C20.2105 22.3199 20.25 22.2245 20.25 22.125V21.375C20.25 20.7537 19.7463 20.25 19.125 20.25ZM1.5 9.00001V18H-0.1875C-0.498141 18 -0.75 18.2519 -0.75 18.5625V19.5H18.75V18.5625C18.75 18.2519 18.4981 18 18.1875 18H16.5V9.00001H13.5V18H10.5V9.00001H7.5V18H4.5V9.00001H1.5Z" fill="#7C8493"/>
</svg>
