<svg width="48" height="48" viewBox="0 0 48 48" fill="none" xmlns="http://www.w3.org/2000/svg">
<path d="M43.95 34.2L38.1 27.15C37.2 26.1 36 25.5 34.65 25.5H13.35C12 25.5 10.8 26.1 9.9 27.15L4.05 34.2C3.3 34.95 3 36 3 37.05V40.5C3 43.05 4.95 45 7.5 45H40.5C43.05 45 45 43.05 45 40.5V37.05C45 36 44.7 34.95 43.95 34.2ZM12.3 29.1C12.6 28.65 12.9 28.5 13.35 28.5H34.5C34.95 28.5 35.4 28.65 35.7 29.1L40.2 34.5H7.65L12.3 29.1ZM18.6 17.4C19.5 21.15 21.3 24 24 24C26.7 24 28.5 21.15 29.4 17.4C33.15 16.5 36 14.7 36 12C36 9.3 33.15 7.5 29.4 6.6C28.5 2.85 26.7 0 24 0C21.3 0 19.5 2.85 18.6 6.6C14.85 7.5 12 9.3 12 12C12 14.7 14.85 16.5 18.6 17.4ZM24 21C23.4 21 22.5 19.8 21.9 17.85C22.65 17.85 23.25 18 24 18C24.75 18 25.35 18 26.1 17.85C25.5 19.8 24.6 21 24 21ZM21 12C21 10.95 21.15 10.05 21.15 9.15C22.05 9.15 22.95 9 24 9C25.05 9 25.95 9.15 26.85 9.15C26.85 10.05 27 10.95 27 12C27 13.05 26.85 13.95 26.85 14.85C25.95 14.85 25.05 15 24 15C22.95 15 22.05 14.85 21.15 14.85C21.15 13.95 21 13.05 21 12ZM33 12C33 12.6 31.8 13.5 29.85 14.1C30 13.35 30 12.75 30 12C30 11.25 30 10.65 29.85 9.9C31.8 10.5 33 11.4 33 12ZM24 3C24.6 3 25.5 4.2 26.1 6.15C25.35 6 24.75 6 24 6C23.25 6 22.65 6 21.9 6.15C22.5 4.2 23.4 3 24 3ZM18.15 9.9C18 10.65 18 11.25 18 12C18 12.75 18 13.35 18.15 14.1C16.2 13.5 15 12.6 15 12C15 11.4 16.2 10.5 18.15 9.9Z" fill="#4640DE"/>
</svg>
