<svg width="48" height="48" viewBox="0 0 48 48" fill="none" xmlns="http://www.w3.org/2000/svg">
<path d="M34.4062 30.0075V25.3237L30.5962 27.5212V32.2087L34.4062 30.0075Z" fill="#4640DE"/>
<path d="M34.4062 17.9926L30.4537 15.7088L24 19.4363L17.5463 15.7088L13.5938 17.9926V22.1438L20.1562 25.9351V33.7988L24 36.0188L27.8438 33.7988V25.9351L34.4062 22.1438V17.9926ZM41.0062 18.3338V14.1826L37.0537 11.8988L33.2062 14.1188L37.1587 16.4026V20.5538L41.0062 18.3338ZM10.8413 20.5538V16.4026L14.7938 14.1188L10.9463 11.8988L6.99375 14.1826V18.3338L10.8413 20.5538Z" fill="#4640DE"/>
<path d="M13.5938 30.0075L17.4037 32.2087V27.5212L13.5938 25.3237V30.0075ZM27.8438 36.9787L24 39.1987L20.1562 36.9787V41.4187L24 43.6387L27.8438 41.4187V36.9787ZM27.7013 14.1187L24 11.9812L20.2988 14.1187L24 16.2562L27.7013 14.1187ZM37.1587 23.7337V31.5975L30.5962 35.3887V39.8287L41.0062 33.8175V21.5137L37.1587 23.7337Z" fill="#4640DE"/>
<path d="M17.4038 35.3887L10.8413 31.5975V23.7337L6.99375 21.5137V33.8175L17.4038 39.8287V35.3887ZM17.5463 12.5287L24 8.80496L30.4538 12.5287L34.3013 10.3087L24 4.36121L13.6988 10.3087L17.5463 12.5287Z" fill="#4640DE"/>
</svg>
