<svg width="48" height="48" viewBox="0 0 48 48" fill="none" xmlns="http://www.w3.org/2000/svg">
<path d="M7.30709 29.2542C7.30709 30.0495 7.95182 30.6942 8.74709 30.6942H19.248V31.0081C19.248 31.4199 19.4242 31.8111 19.7318 32.0847C20.2901 32.5815 21.1358 33.5852 21.168 35.1241C21.1776 35.5767 21.1738 35.9665 21.1622 36.3001H26.8378C26.8262 35.9665 26.8224 35.5767 26.832 35.1241C26.8642 33.5852 27.7099 32.5815 28.2682 32.0847C28.4203 31.9496 28.5421 31.7838 28.6255 31.5982C28.7089 31.4127 28.752 31.2115 28.752 31.0081V30.6942H39.2529C40.0482 30.6942 40.6929 30.0495 40.6929 29.2542V28.0579H7.30709V29.2542ZM30.5665 37.5001H17.4335C15.9948 37.5001 14.8285 38.6663 14.8285 40.1049C14.8285 40.4363 15.0972 40.7049 15.4285 40.7049H32.5715C32.9028 40.7049 33.1715 40.4363 33.1715 40.1049C33.1715 38.6663 32.0052 37.5001 30.5665 37.5001ZM30.6874 13.6831H37.1736V16.8861H30.6874V13.6831ZM20.7571 13.6831H27.2429V16.8861H20.7571V13.6831ZM10.8264 13.6831H17.3126V16.8861H10.8264V13.6831Z" fill="#4640DE"/>
<path d="M39.2529 7.29517H8.74709C7.95182 7.29517 7.30709 7.93985 7.30709 8.73517V26.8578H40.6929V8.73517C40.6929 7.93985 40.0482 7.29517 39.2529 7.29517ZM36.6408 9.3019H37.7735C38.1048 9.3019 38.3735 9.57051 38.3735 9.9019C38.3735 10.2333 38.1048 10.5019 37.7735 10.5019H36.6408C36.3095 10.5019 36.0408 10.2333 36.0408 9.9019C36.0408 9.57051 36.3095 9.3019 36.6408 9.3019ZM23.8585 9.3019H24.9911C25.3225 9.3019 25.5912 9.57051 25.5912 9.9019C25.5912 10.2333 25.3225 10.5019 24.9911 10.5019H23.8585C23.5272 10.5019 23.2585 10.2333 23.2585 9.9019C23.2585 9.57051 23.5272 9.3019 23.8585 9.3019ZM20.4505 9.3019H21.5831C21.9145 9.3019 22.1831 9.57051 22.1831 9.9019C22.1831 10.2333 21.9145 10.5019 21.5831 10.5019H20.4505C20.1192 10.5019 19.8505 10.2333 19.8505 9.9019C19.8505 9.57051 20.1192 9.3019 20.4505 9.3019ZM19.5571 13.0591C19.5571 12.7408 19.8149 12.4831 20.1331 12.4831H27.8669C28.1851 12.4831 28.4429 12.7408 28.4429 13.0591V17.5101C28.4429 17.8279 28.1851 18.0861 27.8669 18.0861H20.1331C19.8149 18.0861 19.5571 17.8279 19.5571 17.5101V13.0591ZM13.6345 9.3019H14.7672C15.0985 9.3019 15.3672 9.57051 15.3672 9.9019C15.3672 10.2333 15.0985 10.5019 14.7672 10.5019H13.6345C13.3032 10.5019 13.0345 10.2333 13.0345 9.9019C13.0345 9.57051 13.3032 9.3019 13.6345 9.3019ZM10.2265 9.3019H11.3592C11.6905 9.3019 11.9592 9.57051 11.9592 9.9019C11.9592 10.2333 11.6905 10.5019 11.3592 10.5019H10.2265C9.8952 10.5019 9.62654 10.2333 9.62654 9.9019C9.62654 9.57051 9.89515 9.3019 10.2265 9.3019ZM18.5125 24.2511C18.5125 24.5825 18.2439 24.8511 17.9125 24.8511H10.2265C9.8952 24.8511 9.62654 24.5825 9.62654 24.2511V22.2859C9.62654 21.9546 9.8952 21.6859 10.2265 21.6859H17.9125C18.2439 21.6859 18.5125 21.9546 18.5125 22.2859V24.2511ZM17.9125 20.4859H10.2265C9.8952 20.4859 9.62654 20.2172 9.62654 19.8859C9.62654 19.5545 9.8952 19.2859 10.2265 19.2859H17.9125C18.2439 19.2859 18.5125 19.5545 18.5125 19.8859C18.5125 20.2172 18.2439 20.4859 17.9125 20.4859ZM18.5126 17.5101C18.5126 17.8279 18.2544 18.0861 17.9366 18.0861H10.2024C9.88464 18.0861 9.6264 17.8279 9.6264 17.5101V13.0591C9.6264 12.7408 9.88464 12.4831 10.2024 12.4831H17.9366C18.2544 12.4831 18.5126 12.7408 18.5126 13.0591V17.5101ZM18.1751 10.5019H17.0425C16.7112 10.5019 16.4425 10.2333 16.4425 9.9019C16.4425 9.57051 16.7112 9.3019 17.0425 9.3019H18.1751C18.5065 9.3019 18.7752 9.57051 18.7752 9.9019C18.7752 10.2333 18.5065 10.5019 18.1751 10.5019ZM28.443 24.2511C28.443 24.5825 28.1744 24.8511 27.843 24.8511H20.157C19.8256 24.8511 19.557 24.5825 19.557 24.2511V22.2859C19.557 21.9546 19.8256 21.6859 20.157 21.6859H27.843C28.1744 21.6859 28.443 21.9546 28.443 22.2859V24.2511ZM27.843 20.4859H20.157C19.8256 20.4859 19.557 20.2172 19.557 19.8859C19.557 19.5545 19.8256 19.2859 20.157 19.2859H27.843C28.1744 19.2859 28.443 19.5545 28.443 19.8859C28.443 20.2172 28.1744 20.4859 27.843 20.4859ZM38.3735 24.2511C38.3735 24.5825 38.1048 24.8511 37.7735 24.8511H30.0875C29.7562 24.8511 29.4875 24.5825 29.4875 24.2511V22.2859C29.4875 21.9546 29.7562 21.6859 30.0875 21.6859H37.7735C38.1048 21.6859 38.3735 21.9546 38.3735 22.2859V24.2511H38.3735ZM37.7735 20.4859H30.0875C29.7562 20.4859 29.4875 20.2172 29.4875 19.8859C29.4875 19.5545 29.7562 19.2859 30.0875 19.2859H37.7735C38.1048 19.2859 38.3735 19.5545 38.3735 19.8859C38.3735 20.2172 38.1048 20.4859 37.7735 20.4859ZM38.3736 17.5101C38.3736 17.8279 38.1154 18.0861 37.7976 18.0861H30.0634C29.7456 18.0861 29.4874 17.8279 29.4874 17.5101V13.0591C29.4874 12.7408 29.7456 12.4831 30.0634 12.4831H37.7976C38.1154 12.4831 38.3736 12.7408 38.3736 13.0591V17.5101Z" fill="#4640DE"/>
</svg>
