<svg width="48" height="48" viewBox="0 0 48 48" fill="none" xmlns="http://www.w3.org/2000/svg">
<path d="M14.2503 40.591C15.4795 41.6206 17.1082 42.2536 18.8992 42.2536H29.1008C30.8922 42.2536 32.5208 41.6206 33.7502 40.591C34.6115 39.8696 35.2739 38.954 35.652 37.9171C35.8825 37.286 36.0123 36.6124 36.0123 35.9104V12.0897C36.0123 8.59149 32.912 5.74646 29.1008 5.74646H18.8992C15.0885 5.74646 11.9877 8.59149 11.9877 12.0897V35.9104C11.9877 36.6124 12.1175 37.286 12.3479 37.9171C12.7256 38.9541 13.3891 39.8696 14.2503 40.591ZM33.2036 37.9171C32.4206 39.2614 30.8781 40.1778 29.1008 40.1778H18.8992C17.1219 40.1778 15.5789 39.2614 14.7968 37.9171C14.5898 37.5611 14.4435 37.1729 14.3524 36.7662H33.6471C33.5565 37.1729 33.4102 37.5611 33.2036 37.9171ZM18.8992 7.82218H29.1008C31.2226 7.82218 33.0095 9.12877 33.5666 10.9119H14.4334C14.991 9.12877 16.7769 7.82218 18.8992 7.82218ZM14.2503 35.2433V12.0897C14.2503 12.0667 14.2535 12.0446 14.2539 12.0215H33.7465C33.7465 12.0446 33.7502 12.0666 33.7502 12.0897V35.6565H14.2503V35.2433Z" fill="#4640DE"/>
<path d="M23.9998 39.6846C24.6834 39.6846 25.2383 39.1307 25.2383 38.4471C25.2383 37.7634 24.6833 37.2086 23.9998 37.2086C23.3162 37.2086 22.7622 37.7634 22.7622 38.4471C22.7622 39.1307 23.3161 39.6846 23.9998 39.6846Z" fill="#4640DE"/>
<path d="M30.1305 9.83537C30.377 9.83537 30.5768 9.63558 30.5768 9.38912C30.5768 9.14266 30.377 8.94287 30.1305 8.94287C29.884 8.94287 29.6842 9.14266 29.6842 9.38912C29.6842 9.63558 29.884 9.83537 30.1305 9.83537Z" fill="#4640DE"/>
<path d="M28.6008 8.94287H18.7851C18.7265 8.9429 18.6685 8.95446 18.6144 8.9769C18.5603 8.99934 18.5111 9.03222 18.4697 9.07366C18.4283 9.1151 18.3955 9.16429 18.3731 9.21841C18.3507 9.27254 18.3392 9.33055 18.3393 9.38912C18.3393 9.63568 18.539 9.83537 18.7851 9.83537H28.6008C28.6594 9.83535 28.7173 9.82378 28.7715 9.80134C28.8256 9.7789 28.8747 9.74602 28.9161 9.70458C28.9575 9.66314 28.9903 9.61396 29.0127 9.55983C29.0351 9.5057 29.0466 9.44769 29.0466 9.38912C29.0466 9.14256 28.8469 8.94287 28.6008 8.94287Z" fill="#4640DE"/>
</svg>
